<svg 
    xmlns="http://www.w3.org/2000/svg">
<symbol viewBox="0 0 66.831 66.831" id="like">
<path d="M51.735,20h-2.934c1.419-3.934,2.799-9.714,0.942-14.247c-1.095-2.673-3.177-4.574-6.021-5.496
		C43.197,0.086,42.651,0,42.101,0c-3.701,0-7.05,3.613-11.944,12.888c-2.199,4.171-5.364,7.683-7.593,9.577
		c-0.946,0.804-1.702,1.624-2.315,2.431c-1.69-2.512-4.558-4.167-7.806-4.167c-5.185,0-9.404,4.219-9.404,9.404v27.294
		c0,5.186,4.219,9.404,9.404,9.404c3.406,0,6.386-1.827,8.036-4.546c2.212,2.728,5.586,4.477,9.364,4.477h23.023
		c9.507,0,10.926-6.136,10.926-9.793v-24.91C63.793,25.41,58.384,20,51.735,20z M15.847,57.427c0,1.877-1.527,3.404-3.403,3.404
		c-1.877,0-3.404-1.527-3.404-3.404V30.133c0-1.877,1.527-3.404,3.404-3.404c1.876,0,3.403,1.527,3.403,3.404V57.427z
		 M57.793,56.969c0,2.221-0.354,3.793-4.926,3.793H29.844c-3.34,0-6.058-2.717-6.058-6.057V32.059l0.008-0.095l-0.021-0.176
		c-0.006-0.096-0.106-2.386,2.676-4.75c2.656-2.258,6.419-6.425,9.015-11.351c4.132-7.83,6.104-9.353,6.639-9.641
		c1.039,0.388,1.688,1.007,2.087,1.981c1.293,3.156-0.331,9.224-2.603,13.587l-2.283,4.385h12.43c3.341,0,6.059,2.718,6.059,6.059
		V56.969z"/>
</symbol>
<symbol viewBox="0 0 478.174 478.174" id="dislike">
<path d="M457.525,153.074c1.9-5.1,3.7-12,4.2-20c0.7-14.1-2.8-33.9-22.7-51.9c1.3-9.2,1.3-23.8-6.8-38.3
		c-10.7-19.2-31.6-32.2-62.2-38.7c-20.5-4.4-47.4-5.3-80-2.8c-65.7-1.3-129.7,6.8-133.3,7.3l-23.5,2.8c-6.8-4.8-15.1-7.6-24-7.6h-61
		c-23,0-41.6,18.7-41.6,41.6v162.5c0,23,18.7,41.6,41.6,41.6h61c7.2,0,13.9-1.8,19.8-5c4.2,9.2,10.4,19.7,19.6,29.4
		c0.5,0.5,1,1,1.6,1.4c31.4,24.1,68.4,110.9,81.5,146.3c-1.3,11-2.6,34.8,8.4,47.7c4.9,5.7,11.7,8.8,19.3,8.8
		c7.7,0,34.3-1.8,50.9-24.7c15.7-21.8,16.6-54.4,2.6-97c-11.8-35.8-12.9-51.7-12.5-58.1c5.4,1.2,10.7,2.3,15.8,3.2h0.1
		c0.9,0.2,22.9,5.1,49.2,6.3c37.4,1.8,64.5-4.7,80.3-19.2c21.8-19.9,19.2-45.3,12.7-61.5c5.6-7.3,12.4-19.2,13-34.4
		C471.925,178.974,467.325,165.674,457.525,153.074z M109.225,222.674h-61c-8.1,0-14.6-6.6-14.6-14.6v-162.5
		c0-8.1,6.6-14.6,14.6-14.6h61c8.1,0,14.6,6.6,14.6,14.6v162.5C123.825,216.174,117.325,222.674,109.225,222.674z M430.925,232.374
		c0,0.1,3.5,5.6,4.7,13.1c1.5,9.3-1.1,17-8.1,23.4c-19.1,17.4-74.1,13.4-104.8,6.6c-0.4-0.1-0.8-0.2-1.3-0.3
		c-5.5-1-11.4-2.2-17.4-3.5c-6.4-2.3-15.2-2-21.8,3.9c-13.3,11.8-11.8,38.6,4.9,89.5c11,33.4,11.4,58.6,1.2,72.7
		c-8.6,11.9-22.8,13.4-28.2,13.5c-2.4-4-3.1-17.7-1.3-29c0.3-2.2,0.1-4.5-0.6-6.7c-1.9-5.1-45.8-125.3-90.7-160.9
		c-11.7-12.7-16.8-27.6-18.6-34.3c1.2-3.9,1.9-8.1,1.9-12.4v-162.4c0-3-0.3-6-0.9-8.8l10.1-1.2h0.1c0.6-0.1,65.7-8.5,130-7.1
		c0.4,0,0.9,0,1.4,0c30.3-2.4,54.8-1.7,72.9,2.2c22.4,4.8,37.2,13.2,44,25.1c7.1,12.3,3.2,25,2.9,26.2c-2.1,5.6-0.2,11.7,4.6,15.3
		c29.6,22.2,16,48.1,14.2,51.3c-3.3,5.2-2.5,11.8,1.8,16.3c8.6,9,12.8,18,12.5,26.8c-0.4,13.1-10.5,22.9-11.2,23.5
		C428.225,219.474,427.325,226.774,430.925,232.374z"/>


<symbol viewBox="0 0 502 502" id="heart">
<path style="fill:#FF1D25;" d="M370.994,49.998c-61.509,0-112.296,45.894-119.994,105.306    c-7.698-59.412-58.485-105.306-119.994-105.306C64.176,49.998,10,104.174,10,171.004s80.283,135.528,116.45,166.574    C160.239,366.582,251,452.002,251,452.002s90.761-85.42,124.55-114.424C411.717,306.532,492,237.834,492,171.004    S437.824,49.998,370.994,49.998z"/>
		<path d="M251,462.002c-2.464,0-4.928-0.906-6.854-2.718c-0.906-0.853-90.981-85.595-124.21-114.119l-0.348-0.299    C80.771,311.548,0,242.216,0,171.004C0,98.767,58.769,39.998,131.006,39.998c52.959,0,99.547,31.914,119.994,78.382    c20.446-46.468,67.035-78.382,119.994-78.382C443.231,39.998,502,98.767,502,171.004c0,71.211-80.771,140.543-119.588,173.862    l-0.348,0.299c-33.231,28.525-123.304,113.266-124.21,114.119C255.928,461.096,253.464,462.002,251,462.002z M131.006,59.998    C69.797,59.998,20,109.795,20,171.004c0,62.021,78.917,129.761,112.615,158.687l0.348,0.299    c28.14,24.155,96.205,87.815,118.037,108.294c21.832-20.479,89.897-84.139,118.037-108.294l0.348-0.299    C403.083,300.765,482,233.025,482,171.004c0-61.209-49.797-111.006-111.006-111.006c-55.619,0-102.941,41.525-110.077,96.591    c-0.646,4.984-4.891,8.715-9.917,8.715s-9.271-3.73-9.917-8.715C233.948,101.523,186.625,59.998,131.006,59.998z"/>
		<path d="M252.008,412.021c-2.445,0-4.895-0.891-6.823-2.691c-26.934-25.15-75.469-70.218-97.909-89.48l-0.304-0.261    c-3.771-3.237-8.046-6.907-12.652-10.936c-4.157-3.636-4.58-9.954-0.943-14.11c3.635-4.158,9.953-4.58,14.11-0.943    c4.536,3.967,8.773,7.604,12.512,10.813l0.304,0.261c21.578,18.523,65.492,59.187,98.532,90.038    c4.037,3.77,4.253,10.097,0.484,14.134C257.35,410.955,254.682,412.021,252.008,412.021z"/>
		<path d="M113.283,285.803c-2.51,0-5.021-0.938-6.964-2.825c-6.611-6.417-12.866-12.804-18.592-18.982    c-3.754-4.05-3.514-10.377,0.537-14.132c4.05-3.754,10.377-3.514,14.132,0.537c5.488,5.921,11.495,12.053,17.854,18.227    c3.963,3.847,4.057,10.178,0.21,14.141C118.498,284.788,115.892,285.803,113.283,285.803z"/>
</symbol>
</svg>